<?xml version="1.0" encoding="UTF-8"?>
<svg id="_레이어_2" data-name="레이어 2" xmlns="http://www.w3.org/2000/svg" viewBox="0 0 120.79 34.09">
  <g id="_레이어_1-2" data-name="레이어 1">
    <g>
      <rect x="113.72" y="0" width="2" height="12.14" transform="translate(29.31 82.89) rotate(-45)"/>
      <rect x="108.65" y="5.07" width="12.14" height="2" transform="translate(29.31 82.89) rotate(-45)"/>
      <rect x="113.72" width="2" height="12.14"/>
      <rect x="108.65" y="5.07" width="12.14" height="2"/>
    </g>
    <g>
      <path d="m0,22.22l4.55-2.64c.83,1.92,2.24,3.2,4.85,3.2s3.14-.99,3.14-1.88c0-1.42-1.32-1.98-4.79-2.94-3.43-.96-6.8-2.61-6.8-7.03s3.76-7.03,7.76-7.03,6.77,1.82,8.45,5.21l-4.46,2.61c-.79-1.65-1.88-2.67-3.99-2.67-1.65,0-2.47.83-2.47,1.75,0,1.06.56,1.78,4.16,2.87,3.5,1.06,7.43,2.28,7.43,7.16,0,4.46-3.56,7.1-8.58,7.1S1.29,25.62,0,22.22Z"/>
      <path d="m19.96,19.22c0-4.92,3.89-8.71,8.75-8.71s8.75,3.8,8.75,8.71-3.89,8.71-8.75,8.71-8.75-3.8-8.75-8.71Zm12.54,0c0-2.34-1.65-3.89-3.8-3.89s-3.8,1.55-3.8,3.89,1.65,3.89,3.8,3.89,3.8-1.55,3.8-3.89Z"/>
      <path d="m55.28,10.97l-5.64,16.01c-1.85,5.25-4.79,7.33-9.41,7.1v-4.62c2.31,0,3.4-.73,4.13-2.74l-6.57-15.74h5.45l3.66,10.1,3.1-10.1h5.28Z"/>
      <path d="m64.81,23.51c1.35,0,2.51-.53,3.17-1.25l3.96,2.28c-1.62,2.24-4.06,3.4-7.19,3.4-5.64,0-9.14-3.8-9.14-8.71s3.56-8.71,8.78-8.71c4.82,0,8.38,3.73,8.38,8.71,0,.69-.07,1.35-.2,1.98h-11.72c.63,1.72,2.14,2.31,3.96,2.31Zm3.04-6.01c-.53-1.91-2.01-2.61-3.5-2.61-1.88,0-3.14.92-3.6,2.61h7.1Z"/>
      <path d="m74.58,19.22c0-4.92,3.89-8.71,8.75-8.71s8.75,3.8,8.75,8.71-3.89,8.71-8.75,8.71-8.75-3.8-8.75-8.71Zm12.54,0c0-2.34-1.65-3.89-3.8-3.89s-3.8,1.55-3.8,3.89,1.65,3.89,3.8,3.89,3.8-1.55,3.8-3.89Z"/>
      <path d="m110.72,17.34v10.13h-4.95v-9.41c0-2.05-1.29-3-2.87-3-1.81,0-3.07,1.06-3.07,3.4v9.01h-4.95V10.97h4.95v1.55c.89-1.22,2.54-2.01,4.72-2.01,3.33,0,6.17,2.38,6.17,6.83Z"/>
    </g>
  </g>
</svg>